HIERARCHY
ROOT Hips
{
  OFFSET 352.181 89.6817 215.948
  CHANNELS 6 Xposition Yposition Zposition Zrotation Xrotation Yrotation
  JOINT RightUpLeg
  {
    OFFSET -9.28908 -1.54242 -0.003762
    CHANNELS 3 Zrotation Xrotation Yrotation
    JOINT RightLeg
    {
      OFFSET 0.175992 -41.9066 0.16442
      CHANNELS 3 Zrotation Xrotation Yrotation
      JOINT RightFoot
      {
        OFFSET -0.850518 -41.676 1.19357
        CHANNELS 3 Zrotation Xrotation Yrotation
        End Site
        {
          OFFSET 0 -7.69 17.5
        }
      }
    }
  }
  JOINT LeftUpLeg
  {
    OFFSET 9.35911 -1.62184 0.0934226
    CHANNELS 3 Zrotation Xrotation Yrotation
    JOINT LeftLeg
    {
      OFFSET 0.11037 -41.8771 -4.76722e-05
      CHANNELS 3 Zrotation Xrotation Yrotation
      JOINT LeftFoot
      {
        OFFSET 0.784832 -42.2153 -2.4698
        CHANNELS 3 Zrotation Xrotation Yrotation
        End Site
        {
          OFFSET 0 -7.69 17.5
        }
      }
    }
  }
  JOINT Spine
  {
    OFFSET -0.0264112 14.3118 0.141242
    CHANNELS 3 Zrotation Xrotation Yrotation
    JOINT Spine1
    {
      OFFSET -0.0608006 9.71827 0.0702426
      CHANNELS 3 Zrotation Xrotation Yrotation
      JOINT Spine2
      {
        OFFSET 0.040197 10.1251 -0.0199022
        CHANNELS 3 Zrotation Xrotation Yrotation
        JOINT Spine3
        {
          OFFSET -0.018884 9.71791 0.0127475
          CHANNELS 3 Zrotation Xrotation Yrotation
          JOINT Neck
          {
            OFFSET -0.169577 10.3664 -0.0885607
            CHANNELS 3 Zrotation Xrotation Yrotation
            JOINT Head
            {
              OFFSET -0.26372 9.48406 0.127016
              CHANNELS 3 Zrotation Xrotation Yrotation
              End Site
              {
                OFFSET 0 15.95 0
              }
            }
          }
          JOINT RightShoulder
          {
            OFFSET -3.21308 6.8767 -0.0450237
            CHANNELS 3 Zrotation Xrotation Yrotation
            JOINT RightArm
            {
              OFFSET -12.7762 -0.0188046 -0.0629949
              CHANNELS 3 Zrotation Xrotation Yrotation
              JOINT RightForeArm
              {
                OFFSET -26.5383 -0.000218244 -0.103623
                CHANNELS 3 Zrotation Xrotation Yrotation
                JOINT RightHand
                {
                  OFFSET -25.8669 -0.047899 -0.0603739
                  CHANNELS 3 Zrotation Xrotation Yrotation
                  JOINT RightHandThumb1
                  {
                    OFFSET -2.48905 0.190105 3.12053
                    CHANNELS 3 Zrotation Xrotation Yrotation
                    JOINT RightHandThumb2
                    {
                      OFFSET -3.68274 0 0
                      CHANNELS 3 Zrotation Xrotation Yrotation
                      JOINT RightHandThumb3
                      {
                        OFFSET -2.55832 0 0
                        CHANNELS 3 Zrotation Xrotation Yrotation
                        End Site
                        {
                          OFFSET -2.194 0 0
                        }
                      }
                    }
                  }
                  JOINT RightInHandIndex
                  {
                    OFFSET -3.22368 0.508421 1.97842
                    CHANNELS 3 Zrotation Xrotation Yrotation
                    JOINT RightHandIndex1
                    {
                      OFFSET -5.21684 -0.091368 0.999158
                      CHANNELS 3 Zrotation Xrotation Yrotation
                      JOINT RightHandIndex2
                      {
                        OFFSET -3.61937 0 0
                        CHANNELS 3 Zrotation Xrotation Yrotation
                        JOINT RightHandIndex3
                        {
                          OFFSET -2.0521 0 0
                          CHANNELS 3 Zrotation Xrotation Yrotation
                          End Site
                          {
                            OFFSET -1.805 0 0
                          }
                        }
                      }
                    }
                  }
                  JOINT RightInHandMiddle
                  {
                    OFFSET -3.38211 0.517263 0.756737
                    CHANNELS 3 Zrotation Xrotation Yrotation
                    JOINT RightHandMiddle1
                    {
                      OFFSET -5.17411 -0.084 0.313895
                      CHANNELS 3 Zrotation Xrotation Yrotation
                      JOINT RightHandMiddle2
                      {
                        OFFSET -3.94947 0 0
                        CHANNELS 3 Zrotation Xrotation Yrotation
                        JOINT RightHandMiddle3
                        {
                          OFFSET -2.47579 0 0
                          CHANNELS 3 Zrotation Xrotation Yrotation
                          End Site
                          {
                            OFFSET -1.975 0 0
                          }
                        }
                      }
                    }
                  }
                  JOINT RightInHandRing
                  {
                    OFFSET -3.36516 0.537895 -0.128947
                    CHANNELS 3 Zrotation Xrotation Yrotation
                    JOINT RightHandRing1
                    {
                      OFFSET -4.63474 -0.022105 -0.478947
                      CHANNELS 3 Zrotation Xrotation Yrotation
                      JOINT RightHandRing2
                      {
                        OFFSET -3.44238 0 0
                        CHANNELS 3 Zrotation Xrotation Yrotation
                        JOINT RightHandRing3
                        {
                          OFFSET -2.3881 0 0
                          CHANNELS 3 Zrotation Xrotation Yrotation
                          End Site
                          {
                            OFFSET -1.857 0 0
                          }
                        }
                      }
                    }
                  }
                  JOINT RightInHandPinky
                  {
                    OFFSET -3.16105 0.469368 -1.20179
                    CHANNELS 3 Zrotation Xrotation Yrotation
                    JOINT RightHandPinky1
                    {
                      OFFSET -4.14105 -0.022105 -1.09053
                      CHANNELS 3 Zrotation Xrotation Yrotation
                      JOINT RightHandPinky2
                      {
                        OFFSET -2.75653 0 0
                        CHANNELS 3 Zrotation Xrotation Yrotation
                        JOINT RightHandPinky3
                        {
                          OFFSET -1.74189 0 0
                          CHANNELS 3 Zrotation Xrotation Yrotation
                          End Site
                          {
                            OFFSET -1.645 0 0
                          }
                        }
                      }
                    }
                  }
                }
              }
            }
          }
          JOINT LeftShoulder
          {
            OFFSET 3.21013 6.92813 0.031381
            CHANNELS 3 Zrotation Xrotation Yrotation
            JOINT LeftArm
            {
              OFFSET 12.8361 0.00272676 -0.00293476
              CHANNELS 3 Zrotation Xrotation Yrotation
              JOINT LeftForeArm
              {
                OFFSET 26.5005 -0.02636 0.00399578
                CHANNELS 3 Zrotation Xrotation Yrotation
                JOINT LeftHand
                {
                  OFFSET 25.9821 -0.0367196 0.00246136
                  CHANNELS 3 Zrotation Xrotation Yrotation
                  JOINT LeftHandThumb1
                  {
                    OFFSET 2.48905 0.190105 3.12053
                    CHANNELS 3 Zrotation Xrotation Yrotation
                    JOINT LeftHandThumb2
                    {
                      OFFSET 3.68274 0 0
                      CHANNELS 3 Zrotation Xrotation Yrotation
                      JOINT LeftHandThumb3
                      {
                        OFFSET 2.55832 0 0
                        CHANNELS 3 Zrotation Xrotation Yrotation
                        End Site
                        {
                          OFFSET 2.194 0 0
                        }
                      }
                    }
                  }
                  JOINT LeftInHandIndex
                  {
                    OFFSET 3.22368 0.508421 1.97842
                    CHANNELS 3 Zrotation Xrotation Yrotation
                    JOINT LeftHandIndex1
                    {
                      OFFSET 5.21684 -0.091368 0.999158
                      CHANNELS 3 Zrotation Xrotation Yrotation
                      JOINT LeftHandIndex2
                      {
                        OFFSET 3.61937 0 0
                        CHANNELS 3 Zrotation Xrotation Yrotation
                        JOINT LeftHandIndex3
                        {
                          OFFSET 2.0521 0 0
                          CHANNELS 3 Zrotation Xrotation Yrotation
                          End Site
                          {
                            OFFSET 1.805 0 0
                          }
                        }
                      }
                    }
                  }
                  JOINT LeftInHandMiddle
                  {
                    OFFSET 3.38211 0.517263 0.756737
                    CHANNELS 3 Zrotation Xrotation Yrotation
                    JOINT LeftHandMiddle1
                    {
                      OFFSET 5.17411 -0.084 0.313895
                      CHANNELS 3 Zrotation Xrotation Yrotation
                      JOINT LeftHandMiddle2
                      {
                        OFFSET 3.94947 0 0
                        CHANNELS 3 Zrotation Xrotation Yrotation
                        JOINT LeftHandMiddle3
                        {
                          OFFSET 2.47579 0 0
                          CHANNELS 3 Zrotation Xrotation Yrotation
                          End Site
                          {
                            OFFSET 1.975 0 0
                          }
                        }
                      }
                    }
                  }
                  JOINT LeftInHandRing
                  {
                    OFFSET 3.36516 0.537895 -0.128947
                    CHANNELS 3 Zrotation Xrotation Yrotation
                    JOINT LeftHandRing1
                    {
                      OFFSET 4.63474 -0.022105 -0.478947
                      CHANNELS 3 Zrotation Xrotation Yrotation
                      JOINT LeftHandRing2
                      {
                        OFFSET 3.44238 0 0
                        CHANNELS 3 Zrotation Xrotation Yrotation
                        JOINT LeftHandRing3
                        {
                          OFFSET 2.3881 0 0
                          CHANNELS 3 Zrotation Xrotation Yrotation
                          End Site
                          {
                            OFFSET 1.857 0 0
                          }
                        }
                      }
                    }
                  }
                  JOINT LeftInHandPinky
                  {
                    OFFSET 3.16105 0.469368 -1.20179
                    CHANNELS 3 Zrotation Xrotation Yrotation
                    JOINT LeftHandPinky1
                    {
                      OFFSET 4.14105 -0.022105 -1.09053
                      CHANNELS 3 Zrotation Xrotation Yrotation
                      JOINT LeftHandPinky2
                      {
                        OFFSET 2.75653 0 0
                        CHANNELS 3 Zrotation Xrotation Yrotation
                        JOINT LeftHandPinky3
                        {
                          OFFSET 1.74189 0 0
                          CHANNELS 3 Zrotation Xrotation Yrotation
                          End Site
                          {
                            OFFSET 1.645 0 0
                          }
                        }
                      }
                    }
                  }
                }
              }
            }
          }
        }
      }
    }
  }
}
MOTION
Frames: 2
Frame Time: 0.00833333
1.859916999999999916e+03 8.823829999999998108e+01 2.036759999999999877e+02 2.559080000000000155e+01 1.412240000000000073e+01 -6.555369999999999209e+01 -2.329050000000000153e+01 -5.693229999999999791e+01 -2.246349999999999980e+01 -6.013549999999998619e-01 2.720789999999999864e+01 -1.806009999999999849e+01 1.053919999999999924e+01 5.968449999999999811e+00 2.797710000000000008e+01 1.166960000000000086e+01 -4.899969999999999715e+01 -6.367609999999999992e+00 2.100669999999999593e+00 3.163140000000000285e+01 7.186600000000000321e+00 -1.352539999999999942e+01 -1.024699999999999989e+01 -1.735079999999999956e+01 -7.674059999999998993e+00 1.290979999999999883e+01 1.448610000000000042e+01 -1.612419999999999742e+00 3.409899999999999931e+00 3.417279999999999873e+00 -2.695120000000000182e+00 5.504729999999999457e+00 5.568859999999999033e+00 -1.247640000000000138e-01 -4.185599999999999321e-01 -6.097749999999999559e-01 -1.246690000000000159e-01 -4.216309999999999780e-01 -6.089799999999998548e-01 -2.985860000000000181e+00 -7.956940000000000346e+00 -1.074800000000000288e+01 2.342779999999999863e+00 -1.132750000000000057e+01 2.131759999999999877e+01 7.437669999999999959e+01 -3.191110000000000113e+00 5.133330000000000126e+01 3.123240000000000194e+01 -5.810699999999999932e+01 1.966570000000000107e+01 2.517719999999999914e+01 -1.744269999999999854e+01 -1.792559999999999931e+01 2.818400000000000105e+01 1.072940000000000005e+01 1.915919999999999845e+01 -1.049280000000000074e-13 1.987849999999995412e-16 -1.000000000000000000e+01 -5.651470000000000303e-14 -1.371609999999999898e-14 -1.000000000000000000e+01 -3.180550000000000376e-15 -4.770830000000000256e-15 -3.180550000000000771e-15 1.998179999999999978e+01 8.718970000000000331e-01 2.396399999999999864e+00 2.400000000000000000e+01 -9.541660000000000512e-15 -5.088890000000000064e-14 2.000000000000000000e+01 1.590280000000000077e-15 -2.385419999999999859e-14 -3.180550000000000376e-15 -4.770830000000000256e-15 -3.180550000000000771e-15 2.000000000000000000e+01 -5.565969999999999999e-15 -9.541660000000000512e-15 2.400000000000000000e+01 -8.348959999999999886e-15 -4.770830000000000887e-14 2.000000000000000000e+01 1.590280000000000471e-15 -2.544440000000000301e-14 -3.180550000000000376e-15 -4.770830000000000256e-15 -3.180550000000000771e-15 1.997479999999999833e+01 -1.025649999999999951e+00 -2.819380000000000219e+00 2.400000000000000000e+01 -8.746530000000000547e-15 -3.816670000000000387e-14 2.000000000000000000e+01 -9.541659999999998934e-15 -2.862499999999999793e-14 -3.180550000000000376e-15 -4.770830000000000256e-15 -3.180550000000000771e-15 1.978150000000000119e+01 -3.009479999999999933e+00 -8.305149999999999366e+00 2.400000000000000000e+01 3.180549999999999193e-15 -3.498609999999999948e-14 2.000000000000000000e+01 -1.749310000000000020e-14 -2.226389999999999955e-14 1.355330000000000013e+01 -1.370430000000000170e+01 -3.077270000000000039e+01 -3.672270000000000323e+01 3.305919999999999703e+01 -7.194050000000000011e+01 2.335020000000000095e+01 -6.822450000000000614e+01 2.440919999999999845e+01 -2.267080000000000339e+01 -1.935290000000000532e+01 1.058110000000000106e+01 -2.818400000000000105e+01 1.072940000000000005e+01 -1.915919999999999845e+01 -3.364910000000000477e-15 1.908330000000000147e-14 1.000000000000000000e+01 0.000000000000000000e+00 0.000000000000000000e+00 1.000000000000000000e+01 -1.577721810442023611e-30 -6.361109999999998952e-15 -9.541660000000000512e-15 -1.998179999999999978e+01 8.718970000000000331e-01 -2.396399999999999864e+00 -2.400000000000000000e+01 7.156249999999999484e-15 0.000000000000000000e+00 -2.000000000000000000e+01 1.590279999999999485e-15 -9.541660000000000512e-15 -1.577721810442023611e-30 -6.361109999999998952e-15 -9.541660000000000512e-15 -2.000000000000000000e+01 -1.272219999999999993e-14 -6.361109999999998952e-15 -2.400000000000000000e+01 3.975690000000000513e-15 0.000000000000000000e+00 -2.000000000000000000e+01 -3.180550000000000376e-15 -6.361109999999999741e-15 -1.577721810442023611e-30 -6.361109999999998952e-15 -9.541660000000000512e-15 -1.997479999999999833e+01 -1.025649999999999951e+00 2.819380000000000219e+00 -2.400000000000000000e+01 0.000000000000000000e+00 -1.272219999999999993e-14 -2.000000000000000000e+01 2.385420000000000017e-15 -3.180549999999999193e-15 -1.577721810442023611e-30 -6.361109999999998952e-15 -9.541660000000000512e-15 -1.978150000000000119e+01 -3.009479999999999933e+00 8.305149999999999366e+00 -2.400000000000000000e+01 5.963539999999999081e-15 -3.180550000000000376e-15 -2.000000000000000000e+01 -1.590280000000000274e-15 3.180549999999999982e-15
1.859917000000000371e+03 8.823829999999999529e+01 2.036790000000000020e+02 2.558160000000000167e+01 1.408670000000000222e+01 -6.557040000000000646e+01 -2.323389999999999489e+01 -5.691640000000001010e+01 -2.239249999999999474e+01 -6.405680000000000263e-01 2.717490000000000450e+01 -1.798669999999999902e+01 1.054420000000000002e+01 5.988660000000000316e+00 2.792210000000000036e+01 1.167259999999999920e+01 -4.895700000000000784e+01 -6.329359999999999431e+00 2.048270000000000035e+00 3.166729999999999734e+01 7.244699999999998141e+00 -1.351849999999999952e+01 -1.029020000000000046e+01 -1.740500000000000114e+01 -7.639850000000000030e+00 1.287689999999999912e+01 1.452399999999999913e+01 -1.604079999999999728e+00 3.400389999999999802e+00 3.429769999999999541e+00 -2.681639999999999802e+00 5.489399999999999835e+00 5.589620000000000033e+00 -1.306350000000000011e-01 -4.185600000000000431e-01 -6.097749999999999559e-01 -1.305570000000000341e-01 -4.216309999999999780e-01 -6.089799999999998548e-01 -3.085490000000000066e+00 -7.889289999999999914e+00 -1.073799999999999955e+01 2.336969999999999992e+00 -1.103309999999999924e+01 2.120019999999999882e+01 7.483329999999997995e+01 -3.505610000000000337e+00 5.107150000000000034e+01 3.347120000000001028e+01 -5.797950000000000159e+01 2.234649999999999892e+01 2.512950000000000728e+01 -1.737579999999999814e+01 -1.784319999999999951e+01 2.818400000000000105e+01 1.072940000000000005e+01 1.915919999999999845e+01 -1.129319999999999978e-13 1.204280000000000076e-14 -1.000000000000000000e+01 -3.217409999999999717e-14 2.981770000000000329e-15 -1.000000000000000000e+01 0.000000000000000000e+00 -1.590279999999999880e-15 3.180549999999999193e-15 1.998179999999999978e+01 8.718970000000000331e-01 2.396399999999999864e+00 2.400000000000000000e+01 -3.180550000000000771e-15 -4.452779999999999910e-14 2.000000000000000000e+01 1.590280000000000274e-15 1.749310000000000020e-14 0.000000000000000000e+00 -1.590279999999999880e-15 3.180549999999999193e-15 2.000000000000000000e+01 3.975689999999999725e-15 -9.541660000000003667e-15 2.400000000000000000e+01 -2.782989999999999888e-15 -4.452779999999999910e-14 2.000000000000000000e+01 6.361110000000000530e-15 0.000000000000000000e+00 0.000000000000000000e+00 -1.590279999999999880e-15 3.180549999999999193e-15 1.997479999999999833e+01 -1.025649999999999951e+00 -2.819380000000000219e+00 2.400000000000000000e+01 -5.565969999999998421e-15 -3.498609999999999317e-14 2.000000000000000000e+01 -6.361110000000001319e-15 0.000000000000000000e+00 0.000000000000000000e+00 -1.590279999999999880e-15 3.180549999999999193e-15 1.978150000000000119e+01 -3.009479999999999933e+00 -8.305149999999999366e+00 2.400000000000000000e+01 3.180549999999999193e-15 -2.862499999999999793e-14 2.000000000000000000e+01 -1.113189999999999931e-14 0.000000000000000000e+00 1.361649999999999849e+01 -1.364689999999999870e+01 -3.090209999999999724e+01 -3.618639999999999191e+01 3.316120000000000090e+01 -7.229640000000000555e+01 2.324920000000000186e+01 -6.729279999999999973e+01 2.427839999999999776e+01 -2.242379999999999995e+01 -1.941250000000000142e+01 1.067300000000000182e+01 -2.818400000000000105e+01 1.072940000000000005e+01 -1.915919999999999845e+01 -4.912070000000000161e-15 9.541660000000000512e-15 1.000000000000000000e+01 0.000000000000000000e+00 0.000000000000000000e+00 1.000000000000000000e+01 -3.180549999999999193e-15 -9.541660000000000512e-15 -6.361109999999999741e-15 -1.998179999999999978e+01 8.718970000000000331e-01 -2.396399999999999864e+00 -2.400000000000000000e+01 2.385420000000000017e-15 9.541660000000000512e-15 -2.000000000000000000e+01 -7.951389999999999226e-15 -1.272219999999999835e-14 -3.180549999999999193e-15 -9.541660000000000512e-15 -6.361109999999999741e-15 -2.000000000000000000e+01 -6.361110000000000530e-15 -6.361109999999998952e-15 -2.400000000000000000e+01 -7.951389999999997254e-16 0.000000000000000000e+00 -2.000000000000000000e+01 -2.385419999999999622e-15 9.541660000000000512e-15 -3.180549999999999193e-15 -9.541660000000000512e-15 -6.361109999999999741e-15 -1.997479999999999833e+01 -1.025649999999999951e+00 2.819380000000000219e+00 -2.400000000000000000e+01 9.541660000000000512e-15 6.361110000000000530e-15 -2.000000000000000000e+01 5.565969999999998421e-15 2.226390000000000270e-14 -3.180549999999999193e-15 -9.541660000000000512e-15 -6.361109999999999741e-15 -1.978150000000000119e+01 -3.009479999999999933e+00 8.305149999999999366e+00 -2.400000000000000000e+01 -1.192710000000000403e-15 -9.541660000000000512e-15 -2.000000000000000000e+01 -8.746530000000000547e-15 0.000000000000000000e+00
